<?xml version="1.0" standalone="no"?>
<!DOCTYPE svg PUBLIC "-//W3C//DTD SVG 20010904//EN"
 "http://www.w3.org/TR/2001/REC-SVG-20010904/DTD/svg10.dtd">
<svg version="1.0" xmlns="http://www.w3.org/2000/svg"
 width="512.000000pt" height="512.000000pt" viewBox="0 0 512.000000 512.000000"
 preserveAspectRatio="xMidYMid meet">

<g transform="translate(0.000000,512.000000) scale(0.100000,-0.100000)"
fill="#ffffff" stroke="none">
<path d="M2530 4290 c-1345 -457 -2456 -836 -2469 -843 -32 -16 -61 -65 -61
-103 0 -17 10 -46 22 -64 21 -31 124 -78 1127 -521 607 -268 1108 -492 1113
-497 5 -5 228 -506 496 -1113 444 -1003 491 -1106 522 -1127 18 -12 47 -22 64
-22 38 0 87 29 103 61 7 13 387 1127 844 2474 673 1985 830 2457 825 2485 -8
47 -53 90 -102 96 -32 3 -480 -146 -2484 -826z m909 -686 l-1106 -1106 -814
360 c-448 198 -869 383 -936 413 -67 29 -119 57 -115 60 4 4 122 46 262 93
140 48 1049 356 2020 686 971 329 1772 599 1780 600 8 0 -483 -498 -1091
-1106z m1270 909 c-6 -16 -317 -930 -691 -2033 -374 -1103 -683 -2008 -686
-2012 -4 -4 -193 414 -421 929 l-413 936 1103 1103 c607 607 1107 1104 1111
1104 4 0 3 -12 -3 -27z"/>
</g>
</svg>
