<?xml version="1.0" standalone="no"?>
<!DOCTYPE svg PUBLIC "-//W3C//DTD SVG 20010904//EN"
 "http://www.w3.org/TR/2001/REC-SVG-20010904/DTD/svg10.dtd">
<svg version="1.0" xmlns="http://www.w3.org/2000/svg"
 width="512.000000pt" height="512.000000pt" viewBox="0 0 512.000000 512.000000"
 preserveAspectRatio="xMidYMid meet">

<g transform="translate(0.000000,512.000000) scale(0.100000,-0.100000)"
fill="#ffffff" stroke="none">
<path d="M2498 4896 c-57 -21 -85 -42 -116 -88 l-27 -42 -3 -525 -3 -525 -257
256 c-141 141 -270 262 -287 271 -87 42 -176 27 -245 -43 -75 -74 -87 -165
-35 -255 31 -52 899 -918 944 -940 44 -22 138 -22 182 0 45 22 913 888 944
940 52 90 40 181 -35 255 -69 70 -158 85 -245 43 -16 -9 -146 -130 -287 -271
l-257 -256 -3 526 -3 526 -30 44 c-55 77 -158 114 -237 84z"/>
<path d="M815 3136 c-40 -17 -95 -72 -111 -113 -18 -43 -18 -125 1 -170 19
-44 333 -365 390 -398 90 -52 181 -39 255 35 74 74 87 165 35 255 -33 57 -354
371 -398 390 -44 18 -131 19 -172 1z"/>
<path d="M4131 3135 c-43 -19 -365 -337 -396 -390 -52 -90 -39 -181 35 -255
73 -74 165 -87 255 -35 22 13 117 101 211 197 188 190 199 209 192 308 -5 68
-36 120 -94 160 -46 31 -150 39 -203 15z"/>
<path d="M2420 2554 c-201 -26 -408 -102 -565 -207 -83 -56 -108 -77 -203
-170 -218 -214 -349 -508 -369 -822 -7 -117 3 -158 50 -212 77 -88 222 -97
305 -20 46 43 64 95 73 213 27 359 253 647 599 760 79 26 96 28 250 28 159 0
168 -1 260 -32 339 -114 563 -400 589 -757 9 -117 27 -169 73 -212 83 -77 228
-68 305 20 47 54 57 95 50 212 -36 575 -440 1047 -1007 1176 -83 19 -331 33
-410 23z"/>
<path d="M125 1471 c-141 -66 -167 -247 -52 -348 58 -51 85 -55 378 -51 264 3
266 3 302 28 21 14 50 43 65 64 24 35 27 49 27 116 0 65 -4 82 -25 113 -14 21
-43 50 -64 65 l-39 27 -276 3 c-252 2 -279 0 -316 -17z"/>
<path d="M4394 1476 c-43 -19 -101 -81 -115 -123 -30 -92 7 -198 88 -253 36
-25 38 -25 302 -28 293 -4 320 0 378 51 117 103 86 291 -59 351 -51 22 -546
23 -594 2z"/>
<path d="M140 627 c-19 -6 -53 -30 -75 -52 -99 -98 -78 -261 43 -332 l47 -28
2405 0 2405 0 47 28 c84 49 124 149 97 244 -16 59 -78 124 -135 141 -57 17
-4781 16 -4834 -1z"/>
</g>
</svg>
